<?xml version="1.0" standalone="no"?>
<!DOCTYPE svg PUBLIC "-//W3C//DTD SVG 20010904//EN"
 "http://www.w3.org/TR/2001/REC-SVG-20010904/DTD/svg10.dtd">
<svg version="1.0" xmlns="http://www.w3.org/2000/svg"
 width="127.000000pt" height="127.000000pt" viewBox="0 0 127.000000 127.000000"
 preserveAspectRatio="xMidYMid meet">
<metadata>
Created by potrace 1.11, written by Peter Selinger 2001-2013
</metadata>
<g transform="translate(0.000000,127.000000) scale(0.100000,-0.100000)"
fill="#000000" stroke="none">
<path d="M0 1213 l1 -58 19 50 c25 62 25 65 0 65 -18 0 -20 -7 -20 -57z"/>
<path d="M605 1158 c-16 -6 -37 -14 -46 -18 -9 -5 -33 -12 -53 -15 -20 -4 -36
-11 -36 -15 0 -5 -3 -15 -6 -23 -3 -10 2 -18 15 -22 12 -3 21 -13 21 -21 0
-21 16 -17 33 10 20 30 82 42 132 26 l36 -12 -33 -35 c-18 -20 -50 -54 -70
-76 -21 -22 -38 -46 -38 -52 0 -7 -12 -21 -27 -30 -42 -26 -83 -67 -83 -82 0
-7 -18 -29 -40 -49 -22 -20 -40 -45 -40 -57 0 -18 -2 -17 -21 6 -11 15 -50 41
-87 58 -106 49 -146 69 -164 82 -24 16 -52 -2 -56 -34 -2 -13 -8 -34 -14 -46
-11 -23 -3 -88 12 -98 5 -3 16 10 24 28 14 34 36 57 36 38 0 -5 19 -19 43 -30
23 -11 69 -43 102 -71 33 -27 74 -57 92 -66 35 -19 22 -25 182 86 24 16 53 30
63 30 10 0 62 -20 116 -44 53 -24 111 -47 128 -51 28 -5 33 -12 44 -53 7 -26
29 -76 48 -112 20 -36 41 -75 47 -87 7 -13 29 -39 49 -58 l37 -35 43 25 c24
14 45 22 49 19 8 -8 39 55 32 66 -3 6 -15 6 -31 0 -37 -15 -64 -12 -64 5 0 9
-15 44 -32 78 -18 34 -46 98 -63 141 -26 68 -35 82 -70 103 -44 26 -144 75
-187 92 -22 8 -28 17 -28 42 0 23 4 30 14 26 8 -3 20 1 27 9 7 8 18 13 25 10
11 -4 52 4 139 29 15 5 36 -7 77 -43 37 -33 76 -56 113 -67 31 -10 64 -28 74
-42 24 -30 49 -29 63 2 14 32 12 34 -82 88 -78 45 -106 74 -114 121 -4 20 0
33 14 45 11 9 22 33 25 55 2 22 10 43 17 47 17 11 -1 40 -28 47 -64 15 -114
-2 -114 -40 0 -10 -4 -17 -9 -13 -5 3 -13 0 -16 -6 -5 -7 -14 -4 -29 9 -11 11
-38 23 -60 26 -21 4 -46 12 -55 17 -21 12 -100 40 -126 44 -11 2 -33 -1 -50
-7z m-78 -56 c10 -7 10 -12 -1 -27 -12 -17 -13 -17 -18 8 -5 28 -1 32 19 19z
m527 -59 c-3 -26 -7 -49 -8 -51 -9 -8 -36 13 -32 24 3 7 1 16 -5 19 -5 4 -7
11 -3 16 3 5 9 7 14 4 5 -3 15 3 22 15 7 11 14 20 15 20 2 0 1 -21 -3 -47z
m-67 -25 c-3 -8 -6 -5 -6 6 -1 11 2 17 5 13 3 -3 4 -12 1 -19z m228 -258 c4
-6 4 -18 1 -26 -4 -12 -10 -13 -26 -4 -11 6 -20 17 -20 25 0 17 36 20 45 5z"/>
<path d="M0 181 l0 -181 635 0 635 0 0 39 c0 36 -3 40 -32 50 -477 149 -766
214 -1185 266 l-53 7 0 -181z"/>
</g>
</svg>
